<?xml version="1.0" encoding="UTF-8" standalone="no"?>
<svg xmlns="http://www.w3.org/2000/svg" viewBox="0 0 380 510" version="1.0">
  <defs>
    <filter id="drop-shadow">
      <feGaussianBlur id="feGaussianBlur4783" stdDeviation="5.4601647"/>
    </filter>
    <linearGradient id="linearGradient2">
      <stop style="stop-color:#f7ec9a" offset="0"/>
      <stop style="stop-color:#f6ea8d" offset=".13401"/>
      <stop style="stop-color:#f5e98a" offset=".45674"/>
      <stop style="stop-color:#f8ed9d" offset=".80934"/>
      <stop style="stop-color:#f5e98a" offset="1"/>
    </linearGradient>
    <g id="note">
      <path style="opacity:.5;filter:url(#drop-shadow);fill:#000000" d="m111.75 670.22l291.37-1.42 5.86 284.29s-228.99-3.84-306.48-0.73c7.35-70.31 9.25-282.14 9.25-282.14z" transform="matrix(1.0231 .0042596 -.0043582 .99999 -61.966 -626.72)"/>
      <path style="fill:url(#linearGradient2)" d="m46.41 37.51l304.28 1.297-1.21 284.28s-262.56 5.77-298.49-15.56c-7.501-36.06-4.58-270.02-4.58-270.02z"/>
    </g>
  </defs>
  <g font-family="Arial, Helvetica, sans-serif" font-size="8">
    <polyline stroke="#ccc" fill="none" points="10,500 11,487 10,452 10,452 11,429 9,403 11,403 10,396 10,356 10,321 10,285 11,274 10,254 10,251 10,221 11,204 9,167 11,157 11,123 10,101 11,100 10,61 9,60 10,35 5,44 10,35 13,43" />
    <text fill="#ccc" transform="translate(6, 255) rotate(-90)">adopting</text>
    <polyline stroke="#fcc" fill="none" points="6,300 22,300 40,299 56,300 60,301 98,300 131,301 134,300 142,300 152,300 186,299 189,300 218,300 233,300 251,300 275,300 307,299 323,299 349,300" />
    <text x="12" y="310" fill="#fcc">danger zone</text>
    <polyline stroke="#ccf" fill="none" points="8,100 31,99 59,101 62,100 98,100 128,100 154,100 156,99 174,100 198,100 225,100 238,99 262,101 298,99 308,99 322,101 333,100 352,99" />
    <text x="13" y="110" fill="#ccf">winning</text>
    <text x="20" y="400">1. Pleased with Osprey, but Clare got some good generic cubes. My cheapos fell apart.</text>
    <text x="20" y="410">2. I wear these most days anyway, but perfect for travel.</text>
    <text x="20" y="420">3. Empty it to go through security and refill the other side.</text>
    <text x="20" y="430">4. Usually somewhere to plug in on trains these days, worth keeping to hand.</text>
    <text x="20" y="440">5. If we really do a "lads trip" next year I might buy some of these.</text>
    <text x="20" y="450">6. I have all the shorts pockets, but need shirt pockets for small things.</text>
    <text x="20" y="460">7. Liking using super lightweight hand luggage, good for trips and easier to pack away.</text>
    <text x="20" y="470">8. Worked well starting the trip in clothes that were bin-ready and chucking at the destination.</text>
    <text x="20" y="480">9. Seen this idea, but I don't take socks for every day, try to wear flip flops...</text>
    <text x="20" y="490">10. I love them, but they're too hot for hot weather even with the vents.</text>
    <text x="20" y="500">11. I like the micro razor, but is just taking one disposable blade and using hotel soap better?</text>
    <svg x="180" y="300">
      <g transform="translate(0 0) rotate(0.5 50 50)">
        <use href="#note" transform="scale(0.3 0.3)" />
        
        <text x="20" y="60">New Fjallraven</text>
        <text x="20" y="70">trekking trousers.</text>
        <text x="20" y="80">Too hot. (10)</text>
      </g>
    </svg>
    <svg x="270" y="300">
      <g transform="translate(-4 -1) rotate(-0.6 50 50)">
        <use href="#note" transform="scale(0.3 0.3)" />
        
        <text x="20" y="60">More socks than</text>
        <text x="20" y="70">expected (crazy</text>
        <text x="20" y="80">talk) (9)</text>
      </g>
    </svg>
    <svg x="90" y="240">
      <g transform="translate(-6 -1) rotate(-2.6 50 50)">
        <use href="#note" transform="scale(0.3 0.3)" />
        
        <text x="20" y="60">Shirt with more</text>
        <text x="20" y="70">pockets, for glasses</text>
        <text x="20" y="80">etc (6)</text>
      </g>
    </svg>
    <svg x="180" y="240">
      <g transform="translate(0 -6) rotate(-2.7 50 50)">
        <use href="#note" transform="scale(0.3 0.3)" />
        
        <text x="20" y="60">"Adventure before</text>
        <text x="20" y="70">Dementia" patch (5)</text>
      </g>
    </svg>
    <svg x="270" y="240">
      <g transform="translate(-3 -4) rotate(-0.6 50 50)">
        <use href="#note" transform="scale(0.3 0.3)" />
        
        <text x="20" y="60">Micro razor (11)</text>
      </g>
    </svg>
    <svg x="180" y="180">
      <g transform="translate(-2 -1) rotate(-2.1 50 50)">
        <use href="#note" transform="scale(0.3 0.3)" />
        
        <text x="20" y="60">Throw away initial</text>
        <text x="20" y="70">clothes (8)</text>
      </g>
    </svg>
    <svg x="270" y="180">
      <g transform="translate(-5 -3) rotate(-0.0 50 50)">
        <use href="#note" transform="scale(0.3 0.3)" />
        
        <text x="20" y="60">Tote bag good enough</text>
        <text x="20" y="70">as hand luggage (7)</text>
      </g>
    </svg>
    <svg x="270" y="120">
      <g transform="translate(-4 -3) rotate(-0.9 50 50)">
        <use href="#note" transform="scale(0.3 0.3)" />
        
        <text x="20" y="60">Chargers always in</text>
        <text x="20" y="70">hand luggage (4)</text>
      </g>
    </svg>
    <svg x="270" y="60">
      <g transform="translate(-3 -6) rotate(2.6 50 50)">
        <use href="#note" transform="scale(0.3 0.3)" />
        
        <text x="20" y="60">HydraPak Ultraflask</text>
        <text x="20" y="70">collapsible water</text>
        <text x="20" y="80">bottle (3)</text>
      </g>
    </svg>
    <svg x="180" y="0">
      <g transform="translate(-4 0) rotate(2.3 50 50)">
        <use href="#note" transform="scale(0.3 0.3)" />
        
        <text x="20" y="60">Packing cubes (1)</text>
      </g>
    </svg>
    <svg x="270" y="0">
      <g transform="translate(-5 -1) rotate(1.0 50 50)">
        <use href="#note" transform="scale(0.3 0.3)" />
        
        <text x="20" y="60">Pickpocket proof</text>
        <text x="20" y="70">shorts from</text>
        <text x="20" y="80">clothingarts.com (2)</text>
      </g>
    </svg>
  </g>
</svg>
