<?xml version="1.0" encoding="UTF-8" standalone="no"?>
<svg xmlns="http://www.w3.org/2000/svg" viewBox="0 0 380 460" version="1.0">
  <defs>
    <filter id="drop-shadow">
      <feGaussianBlur id="feGaussianBlur4783" stdDeviation="5.4601647"/>
    </filter>
    <linearGradient id="linearGradient2">
      <stop style="stop-color:#f7ec9a" offset="0"/>
      <stop style="stop-color:#f6ea8d" offset=".13401"/>
      <stop style="stop-color:#f5e98a" offset=".45674"/>
      <stop style="stop-color:#f8ed9d" offset=".80934"/>
      <stop style="stop-color:#f5e98a" offset="1"/>
    </linearGradient>
    <g id="note">
      <path style="opacity:.5;filter:url(#drop-shadow);fill:#000000" d="m111.75 670.22l291.37-1.42 5.86 284.29s-228.99-3.84-306.48-0.73c7.35-70.31 9.25-282.14 9.25-282.14z" transform="matrix(1.0231 .0042596 -.0043582 .99999 -61.966 -626.72)"/>
      <path style="fill:url(#linearGradient2)" d="m46.41 37.51l304.28 1.297-1.21 284.28s-262.56 5.77-298.49-15.56c-7.501-36.06-4.58-270.02-4.58-270.02z"/>
    </g>
  </defs>
  <g font-family="Arial, Helvetica, sans-serif" font-size="8">
    <polyline stroke="#ccc" fill="none" points="10,450 10,422 9,401 10,397 9,370 10,344 9,312 10,300 10,289 10,276 10,248 11,221 10,211 10,205 11,199 10,183 9,150 9,112 11,83 9,61 9,60 10,54 10,51 9,27 4,35 9,27 12,36" />
    <text fill="#ccc" transform="translate(6, 230) rotate(-90)">adopting</text>
    <polyline stroke="#fcc" fill="none" points="7,240 28,241 40,240 51,240 54,239 80,240 107,239 115,240 133,241 145,240 146,239 163,241 172,239 187,240 211,241 241,239 266,241 283,239 303,240 316,240 322,240 344,240" />
    <text x="13" y="250" fill="#fcc">danger zone</text>
    <polyline stroke="#ccf" fill="none" points="9,100 18,100 47,99 57,100 66,99 78,101 91,100 100,100 124,100 143,101 152,100 170,100 190,101 198,101 201,99 225,101 244,100 261,100 275,99 293,99 321,100 338,99 340,100 345,99" />
    <text x="10" y="109" fill="#ccf">winning</text>
    <text x="20" y="340">1. Pleased with Osprey, but Clare got some good generic cubes. My cheapos fell apart.</text>
    <text x="20" y="350">2. I wear these most days anyway, but perfect for travel.</text>
    <text x="20" y="360">3. Empty it to go through security and refill the other side.</text>
    <text x="20" y="370">4. Usually somewhere to plug in on trains these days, worth keeping to hand.</text>
    <text x="20" y="380">5. Great torch + pen, no sharp edges, ok to take through security.</text>
    <text x="20" y="390">6. If we really do a "lads trip" next year I might buy some of these.</text>
    <text x="20" y="400">7. I have all the shorts pockets, but need pockets for smaller delicate things.</text>
    <text x="20" y="410">8. Liking using super lightweight hand luggage, good for trips and easier to pack away.</text>
    <text x="20" y="420">9. Worked well starting the trip in clothes that were bin-ready and chucking at the destination.</text>
    <text x="20" y="430">10. I like the micro razor, but is just taking one disposable blade and using hotel soap better?</text>
    <text x="20" y="440">11. Seen this idea, but I don't take socks for every day, try to wear flip flops...</text>
    <text x="20" y="450">12. I love them, but they're too hot for hot weather even with the vents.</text>
    <svg x="180" y="240">
      <g transform="translate(-2 -3) rotate(0.8 50 50)">
        <use href="#note" transform="scale(0.3 0.3)" />
        
        <text x="20" y="60">Fjallraven trekking</text>
        <text x="20" y="70">trousers. Too hot.</text>
        <text x="20" y="80">(12)</text>
      </g>
    </svg>
    <svg x="270" y="240">
      <g transform="translate(-5 -3) rotate(-2.3 50 50)">
        <use href="#note" transform="scale(0.3 0.3)" />
        
        <text x="20" y="60">More socks than</text>
        <text x="20" y="70">expected (crazy</text>
        <text x="20" y="80">talk) (11)</text>
      </g>
    </svg>
    <svg x="90" y="180">
      <g transform="translate(-1 -5) rotate(-2.3 50 50)">
        <use href="#note" transform="scale(0.3 0.3)" />
        
        <text x="20" y="60">Shirt with more</text>
        <text x="20" y="70">pockets, for glasses</text>
        <text x="20" y="80">etc (7)</text>
      </g>
    </svg>
    <svg x="180" y="180">
      <g transform="translate(-2 -3) rotate(2.7 50 50)">
        <use href="#note" transform="scale(0.3 0.3)" />
        
        <text x="20" y="60">"Adventure before</text>
        <text x="20" y="70">Dementia" patch (6)</text>
      </g>
    </svg>
    <svg x="270" y="180">
      <g transform="translate(0 0) rotate(0.4 50 50)">
        <use href="#note" transform="scale(0.3 0.3)" />
        
        <text x="20" y="60">Micro razor (10)</text>
      </g>
    </svg>
    <svg x="90" y="120">
      <g transform="translate(-4 -5) rotate(1.2 50 50)">
        <use href="#note" transform="scale(0.3 0.3)" />
        
        <text x="20" y="60">Throw away initial</text>
        <text x="20" y="70">clothes (9)</text>
      </g>
    </svg>
    <svg x="180" y="120">
      <g transform="translate(-4 -4) rotate(-0.6 50 50)">
        <use href="#note" transform="scale(0.3 0.3)" />
        
        <text x="20" y="60">Tote bag good enough</text>
        <text x="20" y="70">as hand luggage (8)</text>
      </g>
    </svg>
    <svg x="270" y="120">
      <g transform="translate(-2 -1) rotate(1.3 50 50)">
        <use href="#note" transform="scale(0.3 0.3)" />
        
        <text x="20" y="60">OLight OPen (5)</text>
      </g>
    </svg>
    <svg x="270" y="60">
      <g transform="translate(-4 0) rotate(-1.5 50 50)">
        <use href="#note" transform="scale(0.3 0.3)" />
        
        <text x="20" y="60">Chargers always in</text>
        <text x="20" y="70">hand luggage (4)</text>
      </g>
    </svg>
    <svg x="90" y="0">
      <g transform="translate(-1 -6) rotate(-0.7 50 50)">
        <use href="#note" transform="scale(0.3 0.3)" />
        
        <text x="20" y="60">HydraPak Ultraflask</text>
        <text x="20" y="70">collapsible water</text>
        <text x="20" y="80">bottle (3)</text>
      </g>
    </svg>
    <svg x="180" y="0">
      <g transform="translate(-6 -1) rotate(-1.7 50 50)">
        <use href="#note" transform="scale(0.3 0.3)" />
        
        <text x="20" y="60">Packing cubes (1)</text>
      </g>
    </svg>
    <svg x="270" y="0">
      <g transform="translate(-1 -4) rotate(0.7 50 50)">
        <use href="#note" transform="scale(0.3 0.3)" />
        
        <text x="20" y="60">Pickpocket proof</text>
        <text x="20" y="70">shorts from</text>
        <text x="20" y="80">clothingarts.com (2)</text>
      </g>
    </svg>
  </g>
</svg>
